<?xml version="1.0" standalone="no"?>
<!DOCTYPE svg PUBLIC "-//W3C//DTD SVG 20010904//EN"
 "http://www.w3.org/TR/2001/REC-SVG-20010904/DTD/svg10.dtd">
<svg version="1.0" xmlns="http://www.w3.org/2000/svg"
 width="700.000000pt" height="700.000000pt" viewBox="0 0 700.000000 700.000000"
 preserveAspectRatio="xMidYMid meet">
<metadata>
Created by potrace 1.11, written by Peter Selinger 2001-2013
</metadata>
<g transform="translate(0.000000,700.000000) scale(0.100000,-0.100000)"
fill="#000000" stroke="none">
<path d="M0 3500 l0 -3500 3500 0 3500 0 0 3500 0 3500 -3500 0 -3500 0 0
-3500z m4010 1145 c92 -24 235 -95 305 -152 180 -146 302 -378 356 -678 31
-170 31 -488 1 -655 -53 -293 -150 -490 -319 -650 -176 -167 -430 -244 -693
-210 -541 70 -839 561 -798 1316 31 577 310 965 750 1043 80 15 321 6 398 -14z
m2010 -1165 l0 -1140 -237 2 -238 3 -5 918 -5 917 -270 -186 c-148 -103 -280
-193 -292 -201 l-23 -15 0 215 0 215 293 205 292 205 243 1 242 1 0 -1140z
m-4140 420 l0 -190 295 0 295 0 0 -170 0 -170 -295 0 -295 0 0 -190 0 -190
-200 0 -200 0 0 190 0 190 -295 0 -295 0 0 170 0 170 295 0 295 0 0 190 0 190
200 0 200 0 0 -190z m580 -1265 l0 -175 -785 0 -785 0 0 168 c0 93 3 172 7
175 3 4 357 7 785 7 l778 0 0 -175z"/>
<path d="M3692 4275 c-225 -63 -345 -339 -345 -795 0 -416 97 -677 287 -770
53 -26 74 -31 137 -31 154 0 262 76 339 235 138 290 132 889 -13 1160 -87 163
-250 244 -405 201z"/>
</g>
</svg>
