<svg version="1" xmlns="http://www.w3.org/2000/svg" width="933.333" height="933.333" viewBox="0 0 700.000000 700.000000"><path d="M0 350v350h700V0H0v350zm250-186.9c42.8 5.8 78 31.2 99.3 71.9 16.9 32.2 24.6 68.4 24.7 115.1 0 44.2-7.1 80.5-22 111.4-25.2 52.4-67.8 79.5-125.1 79.5-69.9 0-119.6-42.8-138.8-119.5-6.2-24.8-9.1-60.6-7.3-89.7 2.4-37.1 8.8-64.4 21.2-90.3 28.2-58.9 81.7-87.3 148-78.4zm335 188.4V533h-76V386.4c0-116.9-.3-146.5-1.2-146.1-.7.2-21.5 14.5-46.3 31.6-24.7 17.1-45.3 31.1-45.8 31.1-.4 0-.6-15.4-.5-34.1l.3-34.2 46.5-32.3 46.5-32.4H585v181.5z"/><path d="M214.3 224.4c-18.5 4.5-35.6 22.4-44.4 46.5-9.1 25.2-12.6 52.6-11.6 90 .7 22.8 1.6 31.6 4.8 47.1 5.4 26.3 14.5 44.8 28.2 57.7 10.5 9.8 21.8 14.3 36.2 14.3 15.6 0 26.2-4.6 38-16.5 8.9-9 15-19.3 20.3-34.6 8.5-24.3 12.5-62.1 10.3-97-2.2-34.5-8.8-60.2-20.3-79.7-4.6-7.8-17.1-20.1-23.8-23.4-11.4-5.6-25.8-7.3-37.7-4.4z"/></svg>